<svg xmlns="http://www.w3.org/2000/svg" width="1024" height="1024" viewBox="0 0 1024 1024">
<g>
<path d="M 751.50 857.80 L 741.50 860.47 L 516.00 860.65 C330.60,860.79 288.99,860.58 282.00,859.47 C239.10,852.64 200.65,824.10 180.98,784.50 C175.09,772.64 172.73,766.14 169.33,752.50 C167.71,745.96 167.57,729.62 167.26,505.00 C167.24,489.04 167.22,474.09 167.20,460.09 C166.92,269.03 166.90,254.42 171.30,241.29 C171.98,239.24 172.78,237.23 173.70,234.59 C180.86,213.98 190.20,198.88 205.68,182.92 C224.00,164.03 244.32,152.20 270.50,145.20 L 280.50 142.52 L 507.00 142.23 C521.00,142.21 534.17,142.19 546.57,142.17 C728.16,141.92 743.27,141.90 757.01,146.22 C759.20,146.91 761.35,147.71 764.13,148.63 C776.97,152.90 793.32,161.74 804.46,170.45 C831.74,191.75 850.59,224.06 855.52,257.94 C856.88,267.26 857.02,296.54 856.75,506.50 L 856.43 744.50 L 854.22 753.41 C847.44,780.79 836.12,800.99 816.56,820.58 C797.67,839.50 778.11,850.69 751.50,857.80 ZM 478.81 775.02 C491.98,776.29 533.68,775.37 547.00,773.52 C618.91,763.50 669.74,731.84 694.87,681.40 C704.41,662.26 709.26,644.47 710.92,622.52 C715.45,562.66 689.22,516.97 633.25,487.26 C611.97,475.97 593.35,468.93 555.61,457.90 C542.35,454.03 525.42,449.07 518.00,446.88 C462.16,430.41 440.27,414.21 438.26,387.86 C436.57,365.92 451.19,347.95 478.00,338.98 C510.80,328.01 565.00,332.86 608.46,350.65 C631.33,360.01 655.26,373.83 677.50,390.52 C684.08,395.46 690.04,399.86 690.73,400.30 C691.75,400.94 691.99,389.87 691.97,344.30 L 691.93 287.50 L 684.22 281.84 C643.71,252.14 596.04,234.16 544.14,229.03 C528.81,227.51 495.51,227.76 480.54,229.52 C401.87,238.72 346.51,276.76 327.03,335.00 C320.65,354.07 319.59,361.24 319.54,385.50 C319.50,409.81 320.62,417.91 326.25,434.00 C333.00,453.26 341.87,467.10 357.39,482.57 C370.15,495.28 385.70,506.15 404.17,515.27 C424.71,525.41 443.49,532.15 484.50,544.10 C547.09,562.34 567.48,571.19 581.80,586.37 C589.15,594.16 593.23,603.20 593.78,612.92 C595.11,636.43 579.31,655.64 551.00,664.95 C527.80,672.58 489.38,673.19 455.50,666.47 C414.45,658.32 365.50,634.21 325.75,602.56 L 315.00 594.00 L 315.00 706.79 L 324.75 714.83 C337.71,725.53 346.48,731.60 361.04,739.94 C393.89,758.76 433.88,770.67 478.81,775.02 Z" fill="rgb(26,16,57)"/>
<path d="M 552.00 878.59 C545.67,878.57 539.09,878.86 537.37,879.23 C535.65,879.60 533.97,879.63 533.63,879.30 C533.30,878.97 478.01,878.60 410.77,878.48 C327.14,878.32 286.01,877.90 280.62,877.13 C263.33,874.68 243.97,867.71 226.50,857.66 C185.07,833.81 155.69,788.88 150.96,742.11 C150.22,734.77 149.99,658.14 150.22,493.50 L 150.55 255.50 L 153.17 245.00 C156.95,229.86 159.44,222.91 165.52,210.50 C173.29,194.63 181.98,182.51 195.07,169.34 C213.71,150.57 234.31,138.16 259.47,130.53 C262.31,129.67 264.61,128.92 266.93,128.27 C282.41,123.93 299.11,123.96 486.67,124.21 C496.48,124.23 506.75,124.24 517.51,124.26 L 740.50 124.55 L 752.60 127.25 C767.25,130.52 785.85,137.93 798.72,145.61 C839.28,169.81 867.31,212.86 872.56,259.00 C873.75,269.45 873.98,309.35 873.99,502.16 C873.99,509.54 873.99,516.69 873.99,523.64 C874.00,729.04 874.01,745.21 869.96,760.30 C869.48,762.10 868.94,763.89 868.34,765.98 C851.65,823.70 805.59,865.37 746.00,876.66 C738.72,878.04 726.07,878.31 658.00,878.56 C614.28,878.72 575.12,878.80 571.00,878.73 C566.88,878.67 558.33,878.60 552.00,878.59 ZM 751.50 857.80 C778.11,850.69 797.67,839.50 816.56,820.58 C836.12,800.99 847.44,780.79 854.22,753.41 L 856.43 744.50 L 856.75 506.50 C857.02,296.54 856.88,267.26 855.52,257.94 C850.59,224.06 831.74,191.75 804.46,170.45 C793.32,161.74 776.97,152.90 764.13,148.63 C761.35,147.71 759.20,146.91 757.01,146.22 C743.27,141.90 728.16,141.92 546.57,142.17 L 546.57 142.17 C534.17,142.19 521.00,142.21 507.00,142.23 L 280.50 142.52 L 270.50 145.20 C244.32,152.20 224.00,164.03 205.68,182.92 C190.20,198.88 180.86,213.98 173.70,234.59 C172.78,237.23 171.98,239.24 171.30,241.29 C166.90,254.42 166.92,269.03 167.20,460.09 C167.22,474.09 167.24,489.04 167.26,505.00 C167.57,729.62 167.71,745.96 169.33,752.50 C172.73,766.14 175.09,772.64 180.98,784.50 C200.65,824.10 239.10,852.64 282.00,859.47 C288.99,860.58 330.60,860.79 516.00,860.65 L 741.50 860.47 ZM 478.81 775.02 C433.88,770.67 393.89,758.76 361.04,739.94 C346.48,731.60 337.71,725.53 324.75,714.83 L 315.00 706.79 L 315.00 594.00 L 325.75 602.56 C365.50,634.21 414.45,658.32 455.50,666.47 C489.38,673.19 527.80,672.58 551.00,664.95 C579.31,655.64 595.11,636.43 593.78,612.92 C593.23,603.20 589.15,594.16 581.80,586.37 C567.48,571.19 547.09,562.34 484.50,544.10 C443.49,532.15 424.71,525.41 404.17,515.27 C385.70,506.15 370.15,495.28 357.39,482.57 C341.87,467.10 333.00,453.26 326.25,434.00 C320.62,417.91 319.50,409.81 319.54,385.50 C319.59,361.24 320.65,354.07 327.03,335.00 C346.51,276.76 401.87,238.72 480.54,229.52 C495.51,227.76 528.81,227.51 544.14,229.03 C596.04,234.16 643.71,252.14 684.22,281.84 L 691.93 287.50 L 691.97 344.30 C691.99,389.87 691.75,400.94 690.73,400.30 C690.04,399.86 684.08,395.46 677.50,390.52 C655.26,373.83 631.33,360.01 608.46,350.65 C565.00,332.86 510.80,328.01 478.00,338.98 C451.19,347.95 436.57,365.92 438.26,387.86 C440.27,414.21 462.16,430.41 518.00,446.88 C525.42,449.07 542.35,454.03 555.61,457.90 C593.35,468.93 611.97,475.97 633.25,487.26 C689.22,516.97 715.45,562.66 710.92,622.52 C709.26,644.47 704.41,662.26 694.87,681.40 C669.74,731.84 618.91,763.50 547.00,773.52 C533.68,775.37 491.98,776.29 478.81,775.02 Z" fill="rgb(153,116,250)"/>
</g>
</svg>